<?xml version="1.0" encoding="UTF-8"?>
<svg width="274px" height="63px" viewBox="0 0 274 63" version="1.1" xmlns="http://www.w3.org/2000/svg" xmlns:xlink="http://www.w3.org/1999/xlink">
    <!-- Generator: Sketch 47 (45396) - http://www.bohemiancoding.com/sketch -->
    <title>Group 3</title>
    <desc>Created with Sketch.</desc>
    <defs></defs>
    <g id="Page-1" stroke="none" stroke-width="1" fill="none" fill-rule="evenodd">
        <g id="Desktop-HD" transform="translate(-631.000000, -545.000000)">
            <g id="Group-3" transform="translate(631.000000, 545.000000)">
                <path d="M81.371875,43.1894531 L97.5144531,11.1679688 L109.907031,11.1679688 L100.854297,54 L92.6511719,54 L96.8992188,33.7265625 C97.9343802,28.9023196 98.9597605,24.5957221 99.9753906,20.8066406 L99.8289063,20.8066406 L83.1589844,54 L74.9265625,54 L73.1394531,20.8066406 L73.0222656,20.8066406 C72.8074208,22.5253992 72.4363308,24.781236 71.9089844,27.5742188 C71.381638,30.3672015 69.5554844,39.1757071 66.4304688,54 L58.3738281,54 L67.4265625,11.1679688 L79.2625,11.1679688 L81.2546875,43.1894531 L81.371875,43.1894531 Z M142.247266,54 L132.227734,54 L121.798047,21.5976562 L121.622266,21.5976562 L121.505078,22.5351562 C120.880075,26.7539273 120.23555,30.5234209 119.571484,33.84375 L115.323438,54 L107.266797,54 L116.319531,11.1679688 L126.778516,11.1679688 L136.739453,42.7207031 L136.856641,42.7207031 C137.091017,41.2363207 137.471872,39.1172013 137.999219,36.3632812 C138.526565,33.6093612 140.28436,25.2110077 143.272656,11.1679688 L151.3,11.1679688 L142.247266,54 Z M162.534375,30.1816406 L164.819531,30.1816406 C167.378138,30.1816406 169.370305,29.6250056 170.796094,28.5117188 C172.221882,27.3984319 172.934766,25.6992302 172.934766,23.4140625 C172.934766,21.812492 172.470903,20.6113321 171.543164,19.8105469 C170.615425,19.0097616 169.155479,18.609375 167.163281,18.609375 L164.995313,18.609375 L162.534375,30.1816406 Z M160.981641,37.5644531 L157.495313,54 L148.559766,54 L157.6125,11.1679688 L168.130078,11.1679688 C172.759008,11.1679688 176.235535,12.1640525 178.559766,14.15625 C180.883996,16.1484475 182.046094,19.0683401 182.046094,22.9160156 C182.046094,26.0019686 181.235555,28.6533092 179.614453,30.8701172 C177.993351,33.0869251 175.65939,34.7324165 172.6125,35.8066406 L180.258984,54 L170.532422,54 L164.467969,37.5644531 L160.981641,37.5644531 Z M183.892969,54 L192.945703,11.1679688 L201.910547,11.1679688 L194.410547,46.5 L209.410547,46.5 L207.828516,54 L183.892969,54 Z" id="MNRLUI" stroke="#FFFFFF" stroke-width="2" fill="#FFFFFF"></path>
                <path d="M10.483871,44.3548387 L0,44.3548387 L5.72263699,52.4193548 L9.79715453,45.5529954 L10.483871,44.3548387 Z M33.0645161,6.28625569 L30.2709767,0.244013622 C30.1793852,0.104577267 30.0877938,0.0580984814 29.9962023,0.0116196963 C29.9046108,0.0116196963 29.8130194,-0.0348590888 29.6756322,0.0580984814 L17.8603342,8.23836466 C17.8145385,8.28484345 17.7687427,8.33132223 17.722947,8.37780102 L0,41.9354839 L12.1358681,41.9354839 L33.0645161,6.28625569 Z M25.4487619,55.2767316 L20.9677419,62.9032258 L35.9814688,62.9032258 C36.120057,62.9032258 36.2586453,62.8561487 36.3048413,62.7149173 L49.1935484,44.3548387 L31.7776253,44.3548387 L25.4487619,55.2767316 Z M50,41.9354839 L42.9322218,26.6129032 L33.8709677,41.9354839 L50,41.9354839 Z M41.1290323,23.9214756 L34.2165899,8.87096774 L30.0230415,16.022296 L12.281106,46.1700525 L7.25806452,54.6768613 L12.9262673,62.716263 C13.0184332,62.8097444 13.1105991,62.9032258 13.2488479,62.9032258 L18.2258065,62.9032258 L39.1935484,27.2400659 L41.1290323,23.9214756 Z" id="Shape-Copy" fill="#648097" fill-rule="nonzero"></path>
                <path d="M254.85,11.1679688 L248.961328,38.8828125 C247.848041,44.078151 245.719156,47.9941274 242.574609,50.6308594 C239.430062,53.2675913 235.338306,54.5859375 230.299219,54.5859375 C226.158573,54.5859375 222.90177,53.4775501 220.528711,51.2607422 C218.155652,49.0439342 216.969141,46.0410346 216.969141,42.2519531 C216.969141,40.8456961 217.115624,39.4980533 217.408594,38.2089844 L223.150781,11.1679688 L232.086328,11.1679688 L226.402734,38.0917969 C226.070701,39.5371166 225.904687,40.7578075 225.904687,41.7539062 C225.904687,45.2304861 227.750372,46.96875 231.441797,46.96875 C233.844153,46.96875 235.74843,46.2216872 237.154687,44.7275391 C238.560945,43.233391 239.576559,41.001968 240.201562,38.0332031 L245.885156,11.1679688 L254.85,11.1679688 Z" id="Path" stroke="#FFFFFF"></path>
                <polygon id="Path" stroke="#FFFFFF" points="255.246094 54 264.386719 11.1679688 273.322266 11.1679688 264.181641 54"></polygon>
            </g>
        </g>
    </g>
</svg>